<svg xmlns="http://www.w3.org/2000/svg" width="1329" height="667" viewBox="0 0 1329 667"><path d="M 560.244 311.800 C 560.027 386.744, 559.822 396.455, 558.401 399.300 C 557.521 401.060, 550.208 409.217, 542.151 417.427 C 534.093 425.637, 529.075 431.013, 531 429.374 C 538.740 422.782, 558.579 401.827, 559.756 399.002 C 560.737 396.646, 560.954 377.559, 560.750 311.743 L 560.488 227.500 560.244 311.800 M 539.450 246.750 C 530.631 255.485, 523.550 263, 524.138 263 C 524.354 263, 529.917 257.600, 536.500 251 C 543.083 244.400, 548.200 239, 547.872 239 C 547.544 239, 543.754 242.488, 539.450 246.750 M 797.679 345.821 C 756.576 386.931, 750.080 393.822, 751.399 394.916 C 752.242 395.616, 753.393 396.034, 753.955 395.845 C 755.870 395.199, 850 300.555, 850 299.275 C 850 298.574, 848.986 298, 847.746 298 C 846.106 298, 832.481 311.013, 797.679 345.821 M 521.877 329.750 C 521.810 345.563, 521.472 367.142, 521.127 377.703 C 520.782 388.265, 520.839 396.566, 521.253 396.150 C 522.185 395.214, 523.582 301, 522.663 301 C 522.298 301, 521.945 313.938, 521.877 329.750 M 1241.232 304.727 C 1233.935 306.691, 1228.156 308.489, 1228.390 308.723 C 1228.624 308.957, 1234.878 307.540, 1242.287 305.574 C 1249.697 303.609, 1256.263 302, 1256.880 302 C 1258.481 302, 1258.261 304.591, 1256.037 311.905 C 1254.966 315.428, 1254.469 317.903, 1254.934 317.405 C 1256.037 316.223, 1259 305.795, 1259 303.096 C 1259 300.258, 1257.236 300.420, 1241.232 304.727 M 403 314.902 C 403 316.064, 396.272 323.206, 385.716 333.252 L 368.433 349.699 361.466 350.347 C 357.635 350.704, 351.575 350.556, 348 350.018 C 339.595 348.754, 338 348.765, 338 350.090 C 338 350.689, 348.012 361.518, 360.250 374.154 C 376.461 390.894, 382.578 397.858, 382.788 399.815 C 383.031 402.086, 380.644 404.997, 367.288 418.715 C 358.605 427.634, 350.233 435.396, 348.685 435.965 C 346.922 436.613, 331.151 437, 306.508 437 C 269.862 437, 267.115 436.879, 266.689 435.250 C 266.345 433.933, 266.203 434.057, 266.116 435.750 L 266 438 306.856 438 L 347.712 438 352.209 434.567 C 354.682 432.679, 362.842 424.691, 370.343 416.817 C 380.431 406.227, 383.984 401.844, 383.991 399.980 C 383.998 398.122, 381.506 394.977, 374.500 388 C 369.275 382.797, 365 378.271, 365 377.943 C 365 377.615, 359.050 371.444, 351.777 364.230 C 344.504 357.015, 338.832 350.835, 339.172 350.494 C 339.512 350.154, 343.441 350.376, 347.903 350.987 C 352.403 351.603, 358.786 351.784, 362.238 351.394 L 368.460 350.690 386.230 333.753 C 397.134 323.361, 404 316.080, 404 314.909 C 404 313.859, 403.775 313, 403.500 313 C 403.225 313, 403 313.856, 403 314.902 M 697.076 317.170 C 697.536 319.551, 697.922 329.600, 697.933 339.500 C 697.951 356.317, 697.792 357.894, 695.506 363.500 C 693.431 368.590, 693.354 369.121, 694.998 367 C 696.063 365.625, 697.445 362.250, 698.067 359.500 C 699.547 352.964, 698.974 315.571, 697.370 313.968 C 696.529 313.129, 696.454 313.950, 697.076 317.170 M 801 314.062 C 801 315.507, 771.467 346.015, 767.734 348.427 C 765.630 349.786, 762.697 350.414, 757.781 350.557 C 752.901 350.699, 750.325 351.246, 749.191 352.380 C 747.055 354.516, 746.187 369.251, 747.210 386 L 747.973 398.500 732.237 414.455 C 723.581 423.231, 717.503 429.582, 718.728 428.570 C 719.954 427.558, 727.281 420.436, 735.012 412.743 L 749.068 398.756 748.256 386.128 C 747.317 371.523, 748.057 354.543, 749.705 352.895 C 750.330 352.270, 753.971 351.668, 757.796 351.557 C 762.687 351.414, 765.643 350.782, 767.757 349.427 C 769.411 348.367, 777.792 340.211, 786.382 331.303 C 800.061 317.116, 803.461 313, 801.500 313 C 801.225 313, 801 313.478, 801 314.062 M 177.126 332.401 L 158.822 350.801 159.161 381.352 C 159.388 401.788, 159.864 412.265, 160.599 413 C 161.397 413.798, 161.482 412.786, 160.908 409.299 C 160.474 406.659, 160.092 392.363, 160.060 377.530 L 160 350.560 178.280 332.280 C 188.334 322.226, 196.306 314, 195.995 314 C 195.684 314, 187.193 322.280, 177.126 332.401 M 302.489 331.250 L 285.500 348.500 302.750 331.511 C 318.776 315.727, 320.452 314, 319.739 314 C 319.595 314, 311.833 321.762, 302.489 331.250 M 458.373 327.838 C 451.153 335.352, 443.300 343.750, 440.923 346.500 C 438.545 349.250, 444.155 343.735, 453.390 334.244 C 462.624 324.753, 471.139 316.315, 472.312 315.494 C 473.696 314.524, 473.928 314.031, 472.973 314.088 C 472.163 314.136, 465.593 320.324, 458.373 327.838 M 728.668 330.250 C 715.596 343.311, 715.162 343.819, 726.452 332.836 C 734.179 325.321, 742.250 318.008, 744.390 316.586 C 746.698 315.051, 747.599 314, 746.606 314 C 745.685 314, 737.613 321.313, 728.668 330.250 M 892.086 321.088 C 889.839 324.986, 888 328.695, 888 329.330 C 888 329.965, 889.186 328.238, 890.636 325.492 C 894.445 318.277, 897.128 314.726, 898.055 315.673 C 898.500 316.128, 899.675 323.250, 900.665 331.500 C 901.655 339.750, 902.623 345.691, 902.815 344.702 C 903.430 341.540, 899.786 315.529, 898.621 314.765 C 896.654 313.476, 896.250 313.867, 892.086 321.088 M 405 331.112 C 396.475 339.849, 389.291 347.335, 389.036 347.748 C 388.781 348.162, 395.986 341.188, 405.047 332.250 C 414.108 323.313, 421.855 316, 422.261 316 C 422.667 316, 423 334.347, 423 356.772 L 423 397.544 419.800 401.426 C 416.880 404.968, 416.823 405.162, 419.146 403.640 C 423.892 400.530, 424 399.467, 424 355.953 C 424 317.574, 423.890 315.007, 422.250 315.113 C 421.288 315.176, 413.525 322.375, 405 331.112 M 161.500 330.320 C 156.550 335.431, 149.664 341.950, 146.198 344.807 L 139.896 350 118.139 350 C 99.955 350, 96.063 350.255, 94.441 351.555 C 92.566 353.057, 92.574 353.074, 94.684 352.055 C 96.008 351.416, 105.311 351, 118.297 351 L 139.725 351 143.168 348.250 C 150.911 342.065, 160.138 333.441, 165.470 327.406 C 168.583 323.883, 170.988 321.006, 170.815 321.013 C 170.642 321.021, 166.450 325.209, 161.500 330.320 M 1248 322.984 C 1244.975 323.997, 1239.575 325.761, 1236 326.903 C 1232.425 328.045, 1230.850 328.737, 1232.500 328.440 C 1237.263 327.582, 1252.404 322.837, 1253.450 321.875 C 1254.655 320.765, 1254.585 320.779, 1248 322.984 M 283.148 356.110 C 283.263 375.087, 282.985 391.263, 282.532 392.057 C 281.868 393.217, 281.967 393.259, 283.034 392.270 C 284.095 391.286, 284.319 384.181, 284.151 356.824 C 284.036 338.005, 283.716 322.382, 283.440 322.107 C 283.164 321.831, 283.033 337.132, 283.148 356.110 M 968.414 324.500 C 969.487 328.711, 975.102 349.587, 975.629 351.325 C 975.934 352.329, 976.355 352.978, 976.566 352.768 C 977.098 352.235, 970.025 325.844, 968.856 324 C 968.112 322.827, 968.016 322.936, 968.414 324.500 M 496.500 338.692 C 492.100 342.872, 490.144 344.928, 492.153 343.261 C 494.162 341.595, 496.187 340.059, 496.653 339.849 C 497.672 339.389, 505.600 330.980, 504.953 331.046 C 504.704 331.072, 500.900 334.512, 496.500 338.692 M 583.893 336.892 C 580.927 340.133, 577.915 343.845, 577.201 345.142 C 575.947 347.418, 575.975 347.413, 578.008 345 C 579.166 343.625, 582.365 339.913, 585.116 336.750 C 591.651 329.238, 590.809 329.336, 583.893 336.892 M 957.453 338.399 C 957.102 340.268, 957.227 344.206, 957.729 347.149 C 958.609 352.297, 958.641 352.168, 958.572 343.752 C 958.532 338.940, 958.408 335.003, 958.295 335.002 C 958.183 335.001, 957.804 336.530, 957.453 338.399 M 1194.035 337.934 C 1192.352 341.079, 1192.874 346.296, 1195.141 349 L 1197.237 351.500 1195.619 348.785 C 1193.775 345.693, 1193.560 342.286, 1194.975 338.565 C 1196.121 335.552, 1195.524 335.152, 1194.035 337.934 M 1216 336.276 C 1216 336.496, 1219.713 339.481, 1224.250 342.909 C 1228.787 346.337, 1230.700 347.541, 1228.500 345.585 C 1224.110 341.680, 1216 335.641, 1216 336.276 M 59.157 344.099 C 56.321 347.453, 54.018 350.940, 54.039 351.849 C 54.061 352.757, 54.691 352.092, 55.440 350.370 C 56.190 348.649, 57.264 346.955, 57.828 346.606 C 59.050 345.851, 65.357 338, 64.741 338 C 64.507 338, 61.994 340.744, 59.157 344.099 M 1017.180 342.508 C 1014.020 346.143, 1014.506 346.848, 1017.918 343.578 L 1020.836 340.783 1022.666 344.141 C 1023.672 345.989, 1025.025 348.850, 1025.672 350.500 C 1026.319 352.150, 1026.878 352.825, 1026.914 352 C 1027.028 349.431, 1022.164 340, 1020.726 340 C 1019.975 340, 1018.380 341.128, 1017.180 342.508 M 1163.136 346.250 C 1157.603 351.220, 1151.826 359.100, 1150.490 363.500 C 1150.156 364.600, 1150.870 363.700, 1152.076 361.500 C 1153.283 359.300, 1154.659 357.350, 1155.135 357.167 C 1155.611 356.983, 1156 356.247, 1156 355.531 C 1156 354.815, 1158.941 351.478, 1162.537 348.115 C 1169.690 341.423, 1173.122 340.461, 1178.998 343.499 C 1182.038 345.071, 1187 350.866, 1187 352.844 C 1187 353.480, 1187.502 354, 1188.115 354 C 1190.615 354, 1183.095 344.640, 1178.800 342.405 C 1173.372 339.581, 1169.503 340.531, 1163.136 346.250 M 1244.771 360.539 C 1258.333 373.759, 1257.784 372.528, 1255.587 384.811 C 1254.867 388.832, 1254.602 391.757, 1254.998 391.311 C 1255.707 390.512, 1258 377.660, 1258 374.483 C 1258 372.542, 1249.248 363.172, 1239.500 354.677 C 1235.650 351.322, 1238.022 353.960, 1244.771 360.539 M 198.441 351.418 C 196.642 352.732, 196.478 354.396, 196.201 374.168 C 195.943 392.549, 196.124 395.777, 197.506 397.500 C 199.068 399.447, 199.081 399.440, 197.999 397.211 C 197.261 395.690, 196.991 387.886, 197.194 373.923 C 197.447 356.579, 197.761 352.759, 199 351.977 C 201.308 350.521, 242.324 350.724, 243.800 352.200 C 244.659 353.059, 245 359.505, 245 374.871 C 245 393.862, 244.798 396.583, 243.250 398.421 C 241.502 400.498, 241.502 400.498, 243.750 398.595 C 245.956 396.728, 246 396.262, 246 375 C 246 355.257, 245.836 353.161, 244.171 351.655 C 242.592 350.226, 239.481 350, 221.362 350 C 204.834 350, 199.970 350.301, 198.441 351.418 M 286 351.684 C 286 352.399, 292.239 359.319, 302.962 370.500 C 312.190 380.122, 332 398.802, 332 397.882 C 332 397.521, 326.532 392.112, 319.849 385.863 C 313.165 379.613, 302.815 369.230, 296.849 362.788 C 290.882 356.346, 286 351.350, 286 351.684 M 1070.728 354.911 C 1068.402 357.063, 1065.693 360.325, 1064.706 362.161 C 1063.063 365.221, 1063.060 365.291, 1064.673 363 C 1068.493 357.575, 1074.969 351.774, 1076.534 352.375 C 1077.438 352.722, 1077.845 352.558, 1077.493 351.989 C 1076.443 350.290, 1075.092 350.874, 1070.728 354.911 M 1125.946 354.750 L 1122.500 358.500 1126.235 355.068 C 1128.289 353.181, 1130.314 351.981, 1130.735 352.402 C 1131.612 353.281, 1131.403 371.047, 1130.428 378.500 C 1130.068 381.250, 1130.069 383.218, 1130.430 382.874 C 1131.480 381.871, 1132.977 360.113, 1132.324 355.345 C 1131.996 352.955, 1131.203 351, 1130.560 351 C 1129.918 351, 1127.842 352.688, 1125.946 354.750 M 635 352.739 C 652.825 352.985, 655.663 353.242, 656.750 354.702 C 658.349 356.851, 658.518 393.059, 656.945 396.316 C 655.926 398.426, 655.943 398.434, 657.445 396.559 C 659.742 393.692, 659.741 357.502, 657.443 354.223 C 655.911 352.034, 655.568 352.004, 635.193 352.228 L 614.500 352.456 635 352.739 M 473.607 354.582 C 472.829 356.609, 473.031 383.482, 473.888 392 C 474.260 395.704, 474.533 388.716, 474.521 375.755 C 474.509 363.245, 474.436 353.007, 474.357 353.005 C 474.278 353.002, 473.941 353.712, 473.607 354.582 M 612.016 355.459 C 610.918 358.345, 611.860 394.761, 613.089 397 C 613.602 397.934, 613.756 397.179, 613.496 395 C 612.503 386.668, 612.147 357.742, 613.010 355.473 C 613.527 354.113, 613.725 353, 613.450 353 C 613.175 353, 612.530 354.107, 612.016 355.459 M 1100.437 357.250 L 1097.500 360.500 1100.555 357.750 C 1105.048 353.705, 1106.075 354.134, 1105.340 359.750 C 1104.998 362.363, 1104.949 364.275, 1105.231 364 C 1105.513 363.725, 1106.054 361.363, 1106.433 358.750 C 1107.046 354.528, 1106.914 354, 1105.248 354 C 1104.218 354, 1102.052 355.462, 1100.437 357.250 M 571.630 357.250 C 570.804 360.333, 570.975 407.083, 571.820 409.213 C 572.194 410.155, 572.500 398.342, 572.500 382.963 C 572.500 367.583, 572.440 355, 572.367 355 C 572.293 355, 571.962 356.012, 571.630 357.250 M 1203.530 358.049 C 1203.810 358.501, 1206.611 359.833, 1209.757 361.010 C 1212.902 362.187, 1215.931 363.478, 1216.488 363.879 C 1218.073 365.022, 1223 367.008, 1223 366.504 C 1223 365.831, 1217.577 363.151, 1209.862 360.011 C 1206.100 358.480, 1203.251 357.597, 1203.530 358.049 M 919.229 367.517 C 918.980 373.306, 919.175 373.993, 921.614 375.911 C 924.093 377.861, 925.517 378, 943.053 378 C 953.384 378, 962.548 377.727, 963.418 377.393 C 965.224 376.700, 965.520 374.439, 963.933 373.459 C 963.293 373.063, 962.993 373.539, 963.183 374.650 C 963.481 376.390, 962.345 376.516, 944.108 376.772 C 920.033 377.110, 919.416 376.881, 920.422 367.984 C 920.784 364.785, 920.725 361.953, 920.290 361.690 C 919.856 361.427, 919.378 364.049, 919.229 367.517 M 1095.609 363.250 C 1094.819 364.488, 1093.605 367.525, 1092.911 370 C 1092.217 372.475, 1091.224 375.063, 1090.702 375.750 C 1089.725 377.039, 1079.386 377.479, 1075.372 376.401 L 1073.243 375.830 1075.057 368.780 C 1076.054 364.903, 1076.516 362.128, 1076.084 362.615 C 1074.940 363.902, 1071.749 376.082, 1072.387 376.721 C 1073.266 377.599, 1086.618 378.313, 1089.349 377.627 C 1091.379 377.118, 1092.174 375.898, 1093.508 371.249 C 1094.415 368.087, 1095.807 364.488, 1096.601 363.250 C 1097.396 362.012, 1097.821 361, 1097.546 361 C 1097.271 361, 1096.400 362.012, 1095.609 363.250 M 91.174 375.500 C 91.142 383.200, 91.450 391.300, 91.860 393.500 C 92.269 395.700, 92.442 390.075, 92.244 381 C 91.786 360.074, 91.249 357.314, 91.174 375.500 M 871.499 367.432 C 875.842 374.220, 877.260 379.920, 876.837 388.876 C 876.652 392.797, 876.890 396.003, 877.366 396.002 C 877.843 396.001, 878.055 391.577, 877.838 386.171 C 877.492 377.561, 877.042 375.528, 874.209 369.773 C 872.431 366.161, 870.325 362.955, 869.531 362.650 C 868.722 362.340, 869.589 364.446, 871.499 367.432 M 1119.014 363.973 C 1118.434 365.058, 1117.513 368.297, 1116.968 371.171 C 1116.423 374.045, 1115.419 376.750, 1114.738 377.183 C 1112.788 378.422, 1105.546 378.130, 1103.998 376.750 C 1102.806 375.687, 1102.794 375.761, 1103.921 377.250 C 1104.759 378.358, 1106.576 378.995, 1108.872 378.986 C 1115.511 378.961, 1116.795 378.175, 1117.557 373.665 C 1117.941 371.389, 1118.853 367.833, 1119.584 365.763 C 1121.015 361.705, 1120.722 360.782, 1119.014 363.973 M 1013.108 367.693 C 1014.181 369.787, 1014.933 372.400, 1014.779 373.500 C 1014.518 375.371, 1013.530 375.535, 999.500 376.041 L 984.500 376.582 999.731 376.791 L 1014.962 377 1015.594 374.481 C 1016.272 371.781, 1014.622 366.761, 1012.471 364.976 C 1011.741 364.370, 1012.024 365.577, 1013.108 367.693 M 683.816 377.765 C 679.040 382.019, 672.968 387.975, 670.324 391 L 665.517 396.500 669.674 393 C 671.960 391.075, 673.869 389.005, 673.915 388.400 C 673.962 387.795, 678.275 383.565, 683.500 379 C 691.944 371.622, 693.653 369.962, 692.750 370.015 C 692.612 370.023, 688.592 373.510, 683.816 377.765 M 1192.415 371.500 C 1193.923 378.579, 1192.090 378, 1213.008 378 C 1225.697 378, 1232.106 377.638, 1232.564 376.896 C 1232.940 376.289, 1231.966 374.601, 1230.401 373.146 L 1227.556 370.500 1229.787 373.074 C 1231.014 374.490, 1231.714 375.952, 1231.342 376.324 C 1230.971 376.696, 1222.628 377, 1212.802 377 C 1196.665 377, 1194.884 376.831, 1194.385 375.250 C 1194.081 374.288, 1193.418 372.600, 1192.911 371.500 L 1191.989 369.500 1192.415 371.500 M 1030 374.893 C 1030 377.079, 1034.245 378, 1044.323 378 C 1053.489 378, 1055.070 377.744, 1057.139 375.920 L 1059.500 373.840 1057.027 375.420 C 1053.482 377.686, 1033.835 377.693, 1031.571 375.429 C 1030.707 374.564, 1030 374.323, 1030 374.893 M 888.611 381 C 889.535 390.433, 892.179 405.457, 893.086 406.426 C 894.172 407.587, 897.681 404.517, 899.676 400.659 C 902.049 396.071, 900.441 396.476, 897.858 401.117 C 896.561 403.447, 895.012 405.511, 894.417 405.704 C 893.743 405.923, 892.655 401.596, 891.542 394.278 C 889.338 379.781, 887.818 372.894, 888.611 381 M 1144.456 383.566 C 1144.069 387.177, 1144.146 390.999, 1144.626 392.060 C 1145.218 393.365, 1145.548 391.244, 1145.648 385.494 C 1145.730 380.822, 1145.653 377, 1145.478 377 C 1145.303 377, 1144.843 379.955, 1144.456 383.566 M 875.397 399.750 C 875.045 401.262, 873.441 405.142, 871.832 408.371 C 870.224 411.599, 869.150 414.483, 869.445 414.778 C 869.741 415.074, 871.312 412.384, 872.936 408.801 C 876.072 401.886, 877.600 397, 876.627 397 C 876.303 397, 875.750 398.238, 875.397 399.750 M 962.155 401.804 L 958.194 406.500 936.347 407.075 L 914.500 407.650 936.358 407.575 L 958.215 407.500 962.477 402.586 L 966.738 397.671 968.505 400.367 C 970.483 403.387, 971.744 403.258, 970.109 400.203 C 968.147 396.538, 966.281 396.913, 962.155 401.804 M 1019.786 401.713 L 1017.500 406.500 996.606 406.771 C 978.996 406.999, 975.303 406.793, 973.106 405.461 L 970.500 403.881 972.861 405.941 C 975.082 407.878, 976.452 408, 996.039 408 C 1019.042 408, 1018.759 408.074, 1021.168 401.412 L 1022.458 397.846 1026.335 402.173 L 1030.211 406.500 1027.033 402.264 C 1025.284 399.934, 1023.453 397.780, 1022.963 397.477 C 1022.473 397.175, 1021.044 399.081, 1019.786 401.713 M 854 404.201 C 850.425 407.596, 848.850 409.427, 850.500 408.271 C 853.466 406.191, 861.828 397.986, 860.953 398.015 C 860.704 398.023, 857.575 400.807, 854 404.201 M 404.500 417.784 C 397.900 424.222, 393.625 428.758, 395 427.865 C 398.373 425.672, 418.183 405.899, 416.866 406.039 C 416.665 406.061, 411.100 411.346, 404.500 417.784 M 1034.500 407.152 C 1039.501 408.068, 1049.940 408.084, 1052.193 407.180 C 1053.123 406.806, 1048.623 406.482, 1042.193 406.460 C 1034.380 406.433, 1031.827 406.663, 1034.500 407.152 M 1080.311 407.748 C 1088.457 407.916, 1101.507 407.916, 1109.311 407.747 C 1117.115 407.579, 1110.450 407.441, 1094.500 407.441 C 1078.550 407.442, 1072.165 407.580, 1080.311 407.748 M 1189.405 409.250 C 1187.505 411.494, 1187.505 411.496, 1189.562 409.765 C 1191.398 408.220, 1194.840 408, 1221.062 407.750 L 1250.500 407.469 1220.905 407.234 L 1191.310 407 1189.405 409.250 M 678.500 420 C 671.917 426.600, 666.756 432, 667.031 432 C 667.306 432, 672.917 426.600, 679.500 420 C 686.083 413.400, 691.244 408, 690.969 408 C 690.694 408, 685.083 413.400, 678.500 420 M 54.024 411.360 C 53.992 413.855, 59.698 424.435, 62.294 426.694 C 63.713 427.928, 63.487 427.319, 61.581 424.770 C 60.048 422.718, 57.725 418.443, 56.420 415.270 C 55.115 412.096, 54.037 410.337, 54.024 411.360 M 1171 412.033 C 1169.625 413.114, 1167.964 414.443, 1167.308 414.985 C 1166.652 415.527, 1163.977 417.327, 1161.362 418.985 C 1158.748 420.643, 1157.076 422, 1157.647 422 C 1158.876 422, 1172.563 412.517, 1173.483 411.027 C 1174.382 409.573, 1173.857 409.786, 1171 412.033 M 1252.482 414.204 C 1250.195 416.922, 1249.861 418.077, 1250.283 421.822 C 1250.626 424.865, 1251.619 427.053, 1253.481 428.868 L 1256.180 431.500 1253.502 427.500 C 1250.292 422.707, 1250.522 417.202, 1254.092 413.402 C 1255.333 412.081, 1256.085 411, 1255.763 411 C 1255.441 411, 1253.965 412.442, 1252.482 414.204 M 1183.403 420.007 C 1181.150 424.403, 1179.575 427.992, 1179.903 427.983 C 1180.744 427.959, 1189.016 411.998, 1188.183 412.007 C 1187.807 412.011, 1185.656 415.611, 1183.403 420.007 M 1256.455 414.455 C 1254.635 416.274, 1254.035 417.891, 1254.136 420.705 C 1254.227 423.248, 1254.402 423.675, 1254.666 422 C 1256.099 412.903, 1258 412.403, 1258 421.122 C 1258 426.451, 1257.806 427.084, 1256.500 426 C 1254.170 424.066, 1254.735 425.675, 1257.189 427.961 C 1258.556 429.235, 1260.736 430, 1263 430 C 1265.264 430, 1267.444 429.235, 1268.811 427.961 C 1270.980 425.940, 1271.789 424.394, 1270.146 425.410 C 1269.677 425.700, 1268.794 424.842, 1268.184 423.504 C 1267.420 421.827, 1267.400 420.871, 1268.119 420.427 C 1268.693 420.072, 1268.892 418.706, 1268.562 417.391 C 1268.167 415.817, 1268.396 414.989, 1269.231 414.968 C 1269.968 414.950, 1269.687 414.321, 1268.559 413.468 C 1265.429 411.101, 1259.309 411.600, 1256.455 414.455 M 833.500 416.027 C 824.161 419.789, 817.085 420.537, 809.540 418.561 C 806.262 417.702, 802.437 417.042, 801.040 417.094 C 799.643 417.146, 801.650 417.913, 805.500 418.800 C 816.165 421.256, 824.102 420.757, 833.791 417.021 C 838.306 415.279, 842 413.662, 842 413.427 C 842 412.719, 840.809 413.083, 833.500 416.027 M 1258.947 413.500 C 1258.918 413.775, 1258.869 417.262, 1258.837 421.250 L 1258.779 428.500 1262.899 428.808 C 1267.680 429.165, 1268.980 427.446, 1267.080 423.277 C 1266.144 421.223, 1266.169 420.512, 1267.199 419.869 C 1269.317 418.547, 1266.772 415.588, 1262.898 414.869 C 1259.888 414.310, 1259.984 414.267, 1263.732 414.494 C 1266.059 414.635, 1267.720 414.356, 1267.423 413.875 C 1266.861 412.966, 1259.040 412.620, 1258.947 413.500 M 799.827 420.254 C 801.432 422.234, 810.913 428.420, 811.477 427.856 C 811.698 427.636, 810.218 426.384, 808.189 425.075 C 806.160 423.766, 803.150 421.778, 801.500 420.656 C 799.384 419.218, 798.891 419.100, 799.827 420.254 M 995.003 422.616 C 990.330 426.838, 989.761 430.487, 993.264 433.778 C 995.668 436.037, 1002.904 439.429, 1003.675 438.658 C 1003.927 438.406, 1002.557 437.679, 1000.629 437.043 C 991.613 434.067, 989.707 429.093, 995.400 423.400 C 999.622 419.178, 1003.497 418.939, 1008.173 422.614 L 1011.500 425.227 1008.234 422.114 C 1003.749 417.837, 1000.141 417.974, 995.003 422.616 M 1019.453 423.050 C 1017.201 425.399, 1015.954 425.966, 1014.015 425.519 C 1012.107 425.079, 1011.862 425.184, 1013 425.954 C 1015.433 427.601, 1016.824 427.180, 1019.729 423.919 C 1022.173 421.177, 1022.987 420.875, 1027.143 421.169 C 1029.711 421.351, 1031.603 421.163, 1031.347 420.750 C 1031.091 420.337, 1028.968 420, 1026.628 420 C 1023.192 420, 1021.813 420.586, 1019.453 423.050 M 860.683 426.475 C 858.626 428.936, 854.818 432.198, 852.222 433.725 C 845.908 437.436, 837.367 437.398, 828.060 433.616 C 824.519 432.177, 821.144 431.023, 820.560 431.052 C 819.977 431.080, 822.875 432.496, 827 434.198 C 837.299 438.448, 845.618 438.640, 852 434.775 C 857.103 431.684, 861.902 427.353, 863.758 424.163 C 865.658 420.898, 864.815 421.532, 860.683 426.475 M 1035.375 424.685 C 1038.726 428.397, 1038.497 431.068, 1034.411 435.923 C 1031.550 439.323, 1031.897 440.103, 1034.924 437.076 C 1039.909 432.091, 1040.149 428.413, 1035.750 424.437 L 1032.500 421.500 1035.375 424.685 M 1261 424.417 C 1261 425.746, 1260.539 427.062, 1259.975 427.342 C 1259.411 427.621, 1259.524 427.736, 1260.225 427.597 C 1260.926 427.457, 1261.644 426.366, 1261.820 425.172 C 1262.168 422.807, 1264 422.139, 1264 424.378 C 1264 425.135, 1264.663 426.305, 1265.473 426.978 C 1266.722 428.014, 1266.711 427.728, 1265.400 425.100 C 1263.544 421.380, 1261 420.985, 1261 424.417 M 1145 426.142 C 1141.333 427.632, 1128.424 430, 1123.971 430 C 1119.678 430, 1118.055 431.495, 1120.132 433.538 C 1121.707 435.087, 1140.178 439.047, 1145.157 438.903 C 1146.996 438.850, 1144.675 438.181, 1140 437.417 C 1127.176 435.320, 1120.709 433.627, 1120.248 432.245 C 1119.964 431.391, 1121.081 431, 1123.806 431 C 1129.285 431, 1143.875 428.140, 1146.961 426.462 C 1149.905 424.860, 1148.658 424.657, 1145 426.142 M 583.336 429.724 C 586.179 433.013, 594.868 436.670, 602.740 437.892 C 606.669 438.501, 619.022 438.918, 630.192 438.817 L 650.500 438.635 626 437.925 C 597.934 437.111, 592.604 436.079, 584.500 429.891 C 581.730 427.776, 581.641 427.763, 583.336 429.724 M 71.923 433.198 C 80.027 436.915, 89.859 437.928, 118.191 437.965 C 132.871 437.984, 145.091 437.663, 145.346 437.250 C 145.602 436.837, 134.266 436.638, 120.156 436.806 C 93.031 437.129, 82.258 436.230, 73.533 432.914 C 67.063 430.455, 66.255 430.597, 71.923 433.198 M 178.551 433.462 C 185.804 437.037, 194.481 437.963, 220.500 437.938 C 241.255 437.918, 243.842 437.729, 247 436 C 251.231 433.684, 250.183 433.337, 245.801 435.603 C 243.117 436.991, 239.062 437.150, 215.600 436.787 C 191.478 436.414, 187.896 436.145, 183 434.337 C 173.919 430.985, 173.267 430.856, 178.551 433.462 M 708.607 432.582 C 707.736 434.852, 707.859 439, 708.797 439 C 709.235 439, 711.373 437.087, 713.547 434.750 L 717.500 430.500 713.120 434.500 L 708.739 438.500 709.307 434.750 C 709.904 430.802, 709.624 429.932, 708.607 432.582 M 523.407 434.250 C 520.591 436.462, 520.083 436.499, 493.022 436.453 C 470.076 436.414, 464.676 436.129, 460.547 434.740 C 457.822 433.823, 455.415 433.251, 455.198 433.469 C 454.981 433.686, 457.210 434.652, 460.151 435.615 C 464.500 437.039, 470.160 437.441, 490.424 437.762 C 504.132 437.979, 516.785 437.888, 518.542 437.558 C 520.299 437.228, 523.034 435.844, 524.618 434.481 C 528.217 431.385, 527.279 431.207, 523.407 434.250" stroke="none" fill="#f7c3c9" fill-rule="evenodd"></path><path d="M 541.196 246.500 L 522.892 264.500 522.989 281.500 C 523.043 290.850, 523.051 298.950, 523.007 299.500 C 522.963 300.050, 522.962 310.175, 523.004 322 C 523.046 333.825, 522.767 355.350, 522.384 369.834 L 521.688 396.168 519.094 397.160 C 511.801 399.948, 479.237 400.619, 475.107 398.066 C 473.716 397.206, 472.163 360.470, 473.322 355.852 C 473.771 354.062, 475.377 352.794, 479.220 351.192 C 484.811 348.860, 490.304 344.500, 506.503 329.534 C 517.118 319.727, 520.127 315.727, 518.279 313.879 C 517.529 313.129, 510.506 313.002, 495.349 313.463 L 473.500 314.127 455.335 332.625 L 437.169 351.123 436.492 359.312 C 436.120 363.815, 435.969 377.400, 436.157 389.500 C 436.484 410.462, 436.616 411.736, 438.951 416.500 C 440.298 419.250, 443.725 423.831, 446.566 426.680 C 450.824 430.952, 453.025 432.267, 459.115 434.180 C 466.077 436.367, 468.048 436.500, 493.500 436.500 L 520.500 436.500 524 434.034 C 530.134 429.713, 556.067 403.644, 558.077 399.779 C 559.951 396.174, 560.003 393.436, 559.756 312.279 L 559.500 228.500 541.196 246.500 M 1239.500 306.052 C 1231.250 308.181, 1219.775 311.088, 1214 312.512 C 1208.225 313.936, 1202.797 315.866, 1201.939 316.800 C 1200.451 318.419, 1196.768 329.100, 1195.490 335.500 C 1193.681 344.561, 1193.744 345.634, 1196.323 349.720 C 1199.605 354.918, 1202.874 357.435, 1209.629 359.962 C 1218.192 363.166, 1222.084 365.455, 1227.928 370.723 C 1231.294 373.758, 1233.076 376.069, 1232.619 376.808 C 1232.091 377.662, 1226.548 378, 1213.048 378 C 1192.014 378, 1193.430 378.527, 1192.446 370.329 C 1191.711 364.210, 1187.297 352.187, 1184.339 348.249 C 1181.299 344.202, 1177.158 342, 1172.586 342 C 1169.665 342, 1167.973 343.029, 1162.537 348.115 C 1158.941 351.478, 1156 354.853, 1156 355.615 C 1156 356.377, 1155.621 357, 1155.158 357 C 1154.694 357, 1152.635 360.580, 1150.582 364.956 C 1146.562 373.523, 1144.537 383.863, 1145.350 391.670 C 1146.190 399.724, 1153.785 405.410, 1165.279 406.588 C 1176.361 407.723, 1176.617 409.336, 1166.820 416.275 C 1155.211 424.496, 1136.212 431, 1123.806 431 C 1118.084 431, 1119.419 433.200, 1126.082 434.750 C 1145.132 439.184, 1163.795 440.186, 1170.500 437.137 C 1175.553 434.838, 1175.657 434.704, 1182.563 421.500 C 1185.727 415.450, 1188.990 409.712, 1189.813 408.750 C 1191.177 407.156, 1193.967 407, 1221.129 407 L 1250.949 407 1252.453 404.090 C 1253.281 402.490, 1254.202 398.103, 1254.501 394.340 C 1254.799 390.578, 1255.516 384.845, 1256.093 381.601 C 1256.670 378.357, 1256.889 374.694, 1256.580 373.461 C 1255.846 370.537, 1238.203 353.799, 1225.723 344.189 C 1218.405 338.553, 1215.984 336.128, 1216.205 334.656 C 1216.507 332.634, 1216.968 332.462, 1244 324.312 C 1253.620 321.412, 1253.908 321.236, 1254.513 317.900 C 1254.755 316.565, 1255.634 313.229, 1256.466 310.486 C 1258.456 303.924, 1258.406 301.979, 1256.250 302.090 C 1255.287 302.140, 1247.750 303.923, 1239.500 306.052 M 200 313.484 C 196.270 314.673, 192.449 317.988, 177.661 332.862 L 159.823 350.805 160.260 381.152 C 160.500 397.844, 160.972 412.556, 161.309 413.846 C 162.298 417.629, 166.569 424.259, 170.165 427.589 C 178.237 435.066, 188.306 436.952, 220.300 436.980 C 239.223 436.997, 243.643 436.728, 246.300 435.401 C 250.026 433.538, 279.499 404.700, 281.472 400.985 C 282.274 399.477, 282.898 394.474, 283.032 388.485 C 283.232 379.549, 283.097 322.984, 282.870 320.500 C 282.820 319.950, 282.855 318.530, 282.948 317.346 C 283.042 316.161, 282.529 314.811, 281.809 314.347 C 281.089 313.883, 264.975 313.485, 246 313.462 C 227.025 313.440, 209.925 313.113, 208 312.735 C 205.849 312.313, 202.766 312.602, 200 313.484 M 108.921 313.957 L 90.342 314.500 84.171 319.849 C 74.610 328.136, 56.877 347.137, 55.362 350.718 C 54.324 353.171, 54 360.473, 54 381.430 C 54 406.846, 54.158 409.346, 56.084 414.495 C 59.166 422.731, 63.610 428.055, 70.128 431.315 C 79.472 435.990, 89.149 437.069, 119.040 436.767 L 145.500 436.500 145.500 418.500 L 145.500 400.500 119.331 400 C 104.939 399.725, 92.847 399.183, 92.460 398.796 C 91.399 397.731, 90.623 368.343, 91.452 360.603 C 92.616 349.738, 91.962 350, 117.948 350 L 139.896 350 146.198 344.781 C 157.532 335.395, 175 316.672, 175 313.910 C 175 312.964, 142.062 312.987, 108.921 313.957 M 332.460 313.745 L 320.420 314.058 303.101 331.398 C 288.028 346.490, 285.876 349.035, 286.508 351.024 C 286.906 352.281, 297.349 363.396, 309.714 375.724 C 322.078 388.052, 332.034 398.299, 331.838 398.495 C 331.642 398.691, 325.861 399.131, 318.991 399.473 C 298.997 400.469, 301.829 399.010, 283.383 417.820 C 274.387 426.994, 267.020 435.063, 267.013 435.750 C 266.996 437.371, 344.307 437.574, 348.685 435.965 C 350.233 435.396, 358.605 427.634, 367.288 418.715 C 380.644 404.997, 383.031 402.086, 382.788 399.815 C 382.578 397.858, 376.461 390.894, 360.250 374.154 C 348.012 361.518, 338 350.689, 338 350.090 C 338 348.765, 339.595 348.754, 348 350.018 C 351.575 350.556, 357.635 350.704, 361.466 350.347 L 368.433 349.699 385.716 333.252 C 396.272 323.206, 403 316.064, 403 314.902 C 403 313.071, 401.908 313.008, 373.750 313.216 C 357.663 313.335, 339.082 313.573, 332.460 313.745 M 608.500 314.911 C 601.353 318.247, 579.887 340.917, 574.176 351.161 C 572.254 354.607, 572.135 356.481, 572.147 383.161 L 572.159 411.500 574.939 417.500 C 580.003 428.430, 589.084 434.792, 602.549 436.842 C 606.372 437.424, 620.356 438.002, 633.624 438.126 C 657.602 438.351, 657.771 438.338, 661.666 435.926 C 666.428 432.978, 696 402.429, 696 400.458 C 696 399.328, 693.118 398.999, 681.263 398.777 C 669.094 398.548, 666.479 398.239, 666.261 397 C 665.974 395.370, 675.317 385.263, 686.619 374.978 C 692.455 369.667, 694.137 367.419, 695.958 362.500 C 698.035 356.887, 698.156 355.179, 697.836 336 C 697.649 324.725, 697.132 314.938, 696.689 314.250 C 696.064 313.282, 686.467 313.005, 654.191 313.022 C 615.611 313.042, 612.202 313.183, 608.500 314.911 M 750.230 314.082 C 748.432 314.452, 745.271 315.926, 743.206 317.358 C 737.042 321.629, 711.210 348.278, 710.595 351 C 710.285 352.375, 709.911 372.503, 709.765 395.728 L 709.500 437.957 711.573 435.728 C 712.714 434.503, 721.368 425.597, 730.805 415.938 L 747.963 398.376 747.205 385.938 C 746.187 369.242, 747.058 354.513, 749.191 352.380 C 750.325 351.246, 752.901 350.699, 757.781 350.557 C 762.697 350.414, 765.630 349.786, 767.734 348.427 C 771.077 346.268, 801 315.581, 801 314.312 C 801 313.333, 754.879 313.124, 750.230 314.082 M 895.234 317.673 C 891.832 322.453, 887.205 332.247, 885.915 337.397 C 884.339 343.689, 885.074 350.699, 892.713 402.288 C 893.364 406.689, 894.717 406.649, 897.344 402.150 C 901.884 394.378, 903.957 385.892, 903.978 375 C 904.008 359.434, 899.810 317.542, 898.032 315.673 C 897.600 315.218, 896.341 316.118, 895.234 317.673 M 404.802 332.750 L 388.181 349.500 387.550 355 C 387.203 358.025, 386.723 375.575, 386.484 394 C 386.244 412.425, 385.975 428.400, 385.887 429.500 C 385.622 432.784, 385.940 434, 387.062 434 C 388.543 434, 414.261 408.607, 419.059 402.408 L 423 397.315 423 356.658 C 423 334.296, 422.645 316, 422.212 316 C 421.778 316, 413.944 323.538, 404.802 332.750 M 964.771 321.750 C 962.793 324, 958.759 332, 959.602 332 C 959.956 332, 959.792 332.563, 959.238 333.250 C 956.798 336.281, 959.312 357.942, 963.662 371.367 C 964.987 375.456, 965.020 376.373, 963.869 377.102 C 963.116 377.579, 953.898 377.976, 943.385 377.985 C 925.300 377.999, 924.122 377.884, 921.524 375.840 C 918.927 373.798, 918.813 373.367, 919.429 367.924 C 920.150 361.556, 918.965 359.562, 916.632 363.218 C 913.337 368.380, 910.797 379.502, 910.286 391 C 909.786 402.269, 909.826 402.546, 912.262 404.806 C 914.723 407.088, 914.972 407.109, 936.433 406.806 L 958.117 406.500 962.386 401.577 L 966.654 396.654 968.827 398.827 C 970.022 400.022, 971 401.665, 971 402.477 C 971 403.289, 972.060 404.649, 973.356 405.498 C 975.327 406.789, 979.132 406.997, 996.606 406.771 L 1017.500 406.500 1019.875 401.523 L 1022.251 396.545 1026.560 401.512 L 1030.869 406.479 1043.184 406.228 C 1049.958 406.090, 1057.300 406.009, 1059.500 406.049 C 1061.700 406.089, 1077.094 406.332, 1093.708 406.589 L 1123.916 407.057 1125.365 404.779 C 1126.620 402.806, 1130.162 388.198, 1129.868 386.209 C 1129.810 385.819, 1129.834 385.275, 1129.920 385 C 1131.007 381.536, 1131.711 353.379, 1130.735 352.402 C 1129.592 351.258, 1123.262 357.828, 1120.995 362.510 C 1119.904 364.763, 1118.505 369.132, 1117.885 372.218 C 1116.661 378.312, 1115.801 378.960, 1108.905 378.986 C 1102.578 379.010, 1100.596 374.781, 1103.415 367.270 C 1105.704 361.172, 1106.295 355, 1104.590 355 C 1101.802 355, 1095.974 363.274, 1093.861 370.233 C 1092.170 375.798, 1091.357 377.123, 1089.320 377.634 C 1086.584 378.321, 1073.257 377.590, 1072.372 376.705 C 1072.065 376.399, 1072.952 372.177, 1074.341 367.324 C 1077.480 356.362, 1077.907 352.852, 1076.172 352.245 C 1074.045 351.502, 1065.829 360.867, 1061.698 368.742 C 1059.609 372.725, 1057.052 376.437, 1056.016 376.992 C 1053.630 378.269, 1034.462 378.317, 1032.098 377.053 C 1030.829 376.373, 1030.277 374.747, 1030.148 371.303 C 1029.906 364.855, 1025.680 349.267, 1022.892 344.542 L 1020.643 340.729 1017.050 344.615 C 1015.012 346.819, 1012.612 351.011, 1011.503 354.303 C 1009.654 359.796, 1009.640 360.251, 1011.243 362.803 C 1015.245 369.178, 1016.254 371.852, 1015.616 374.394 L 1014.962 377 1000.092 377 C 987.385 377, 984.920 376.745, 983.151 375.250 C 981.703 374.026, 980.143 369.741, 977.965 361 C 976.251 354.125, 973.498 343.550, 971.845 337.500 C 969.248 327.990, 968.381 324.144, 968.069 320.750 C 967.950 319.453, 966.370 319.932, 964.771 321.750 M 198.441 351.418 C 196.641 352.732, 196.478 354.402, 196.195 374.363 C 195.904 394.962, 195.979 395.979, 197.945 397.945 C 199.890 399.890, 201.144 400, 221.345 400 C 240.754 400, 242.840 399.834, 244.345 398.171 C 245.777 396.589, 246 393.444, 246 374.826 C 246 355.252, 245.835 353.161, 244.171 351.655 C 242.592 350.226, 239.481 350, 221.362 350 C 204.834 350, 199.970 350.301, 198.441 351.418 M 850.484 357.219 C 848.926 361.190, 847.320 366.249, 846.915 368.463 C 846.195 372.404, 846.303 372.607, 852.119 378.193 C 858.631 384.447, 861 388.883, 861 394.823 C 861 398.218, 860.335 399.336, 855.750 403.654 C 849.714 409.337, 842.055 413.940, 832.896 417.387 C 823.786 420.815, 816.768 421.471, 809.540 419.569 C 806.262 418.706, 802.437 418.014, 801.040 418.032 L 798.500 418.063 801.177 420.282 C 808.357 426.230, 823.360 432.977, 836.500 436.167 C 848.945 439.187, 861.139 430.243, 870.557 411.187 C 875.252 401.687, 876.975 395.204, 876.983 387 C 876.991 378.468, 875.654 373.986, 870.815 366.324 C 866.920 360.157, 856.743 350, 854.458 350 C 853.830 350, 852.041 353.249, 850.484 357.219 M 613.441 353.419 C 611.314 354.973, 611.283 355.511, 611.757 382.179 C 611.950 393.046, 612.323 396.180, 613.571 397.429 C 614.895 398.752, 618.288 399, 635.071 399 C 653.667 399, 655.134 398.866, 657 397 C 658.862 395.138, 659 393.667, 659 375.723 C 659 359.893, 658.722 356.047, 657.443 354.223 C 655.922 352.050, 655.429 352, 635.634 352 C 619.727 352, 614.966 352.304, 613.441 353.419 M 1163.200 368.200 C 1161.262 370.138, 1161.810 372.706, 1164.635 374.927 C 1167.659 377.306, 1172.221 377.643, 1173.907 375.612 C 1177.317 371.503, 1167.023 364.377, 1163.200 368.200 M 1255.111 412.560 C 1249.702 417.111, 1250.019 425.510, 1255.770 430.034 C 1257.490 431.386, 1259.812 432, 1263.212 432 C 1267.321 432, 1268.638 431.516, 1271.026 429.128 C 1274.306 425.848, 1275.512 422.175, 1274.557 418.372 C 1274.194 416.926, 1272.605 414.451, 1271.026 412.872 C 1267.065 408.911, 1259.620 408.766, 1255.111 412.560 M 1256.455 414.455 C 1252.704 418.206, 1253.426 425.273, 1257.913 428.718 C 1258.786 429.388, 1261.103 429.951, 1263.061 429.968 C 1271.193 430.041, 1274.931 419.931, 1268.975 413.975 C 1266.052 411.052, 1259.610 411.299, 1256.455 414.455 M 1259 420.940 C 1259 424.313, 1259.443 427, 1260 427 C 1260.550 427, 1261 425.875, 1261 424.500 C 1261 422.926, 1261.565 422, 1262.525 422 C 1263.363 422, 1264.477 423.125, 1265 424.500 C 1265.523 425.875, 1266.412 427, 1266.975 427 C 1268.307 427, 1268.277 425.386, 1266.897 422.807 C 1266.050 421.224, 1266.108 420.550, 1267.147 419.901 C 1269.497 418.435, 1266.731 415.537, 1262.649 415.190 L 1259 414.879 1259 420.940 M 1261.190 418.750 C 1261.376 419.712, 1262.190 420.500, 1263 420.500 C 1263.810 420.500, 1264.624 419.712, 1264.810 418.750 C 1265.046 417.522, 1264.506 417, 1263 417 C 1261.494 417, 1260.954 417.522, 1261.190 418.750 M 995.400 423.400 C 989.633 429.167, 991.005 432.930, 1000.333 436.929 C 1007.057 439.811, 1008.719 439.591, 1011.133 435.500 C 1012.268 433.575, 1013.947 432, 1014.862 432 C 1015.778 432, 1018.865 433.575, 1021.724 435.500 C 1028.188 439.853, 1031.025 439.948, 1034.411 435.923 C 1038.802 430.705, 1038.858 428.174, 1034.665 424.332 C 1031.710 421.624, 1030.215 421, 1026.680 421 C 1023.108 421, 1021.853 421.536, 1019.658 424 C 1018.187 425.650, 1016.508 427, 1015.927 427 C 1014.384 427, 1010.908 425.042, 1007.673 422.351 C 1003.563 418.932, 999.523 419.277, 995.400 423.400" stroke="none" fill="#dc162e" fill-rule="evenodd"></path></svg>